# xmcd
#
# Track frame offsets:
#	150
#	18799
#	32712
#	49181
#	66925
#	85102
#	103052
#	118666
#	138476
#	156858
#	172559
#	189387
#	201119
#	214771
#	230453
#	246876
#	263522
#	288546
#	305586
#	322001
#	336139
#
# Disc length: 4697
#
# Revision: 2
# Processed by: cddbd v1.5.2PL0 Copyright (c) Steve Scherf et al.
# Submitted via: kJams 2 (development) 2.0patch3
#
DISCID=27125715
DTITLE=Various Artist - Zoom Pop Chart Picks 2014 Part 1
DYEAR=2014
DGENRE=Karaoke
TTITLE0=5 Seconds Of Summer - Amnesia
TTITLE1=5 seconds Of Summer - Don't Stop
TTITLE2=5 Seconds Of Summer - She Looks So Perfect
TTITLE3=A Great Big World - Say Something (Ft. Christina Aguilera) [Duet]
TTITLE4=Afrojack - Ten Feet Tall (Ft. Wrabel)
TTITLE5=Alexa Goddard - So There
TTITLE6=Aloe Blacc - Hello World (the world is ours)
TTITLE7=Aloe Blacc - The Man
TTITLE8=Ariana Grande - Best Mistake (Ft. Big Sean)
TTITLE9=Ariana Grande - Problem (Ft. Iggy Azalea)
TTITLE10=Ariana Grande - Brake Free (Ft. Zedd)
TTITLE11=Avicii - Addicted To You (Ft. Audra Mae)
TTITLE12=Bars and Melody - Hopeful
TTITLE13=Bastille - Oblivion
TTITLE14=Becky G - Shower
TTITLE15=Beyonce - XO
TTITLE16=Beyonce - Drunk In Love (Ft. Jay Z)
TTITLE17=Calvin Harris - Summer
TTITLE18=Calvin Harris - Blame (Ft. John Newman)
TTITLE19=Charli XCX - Boom Clap
TTITLE20=Charli XCX - Break The Rules
EXTD=
EXTT0=
EXTT1=
EXTT2=
EXTT3=
EXTT4=
EXTT5=
EXTT6=
EXTT7=
EXTT8=
EXTT9=
EXTT10=
EXTT11=
EXTT12=
EXTT13=
EXTT14=
EXTT15=
EXTT16=
EXTT17=
EXTT18=
EXTT19=
EXTT20=
PLAYORDER=
